<svg width="15" height="16" viewBox="0 0 15 16" fill="none" xmlns="http://www.w3.org/2000/svg">
<path d="M0.71 4.20403L7.5 7.97682L14.29 4.20403M7.5 15.5V7.96935M14.5 10.9577V4.981C14.4997 4.71897 14.4277 4.46163 14.2912 4.23478C14.1547 4.00793 13.9585 3.81955 13.7222 3.68853L8.27778 0.700182C8.0413 0.56904 7.77306 0.5 7.5 0.5C7.22694 0.5 6.9587 0.56904 6.72222 0.700182L1.27778 3.68853C1.04154 3.81955 0.845318 4.00793 0.708803 4.23478C0.572289 4.46163 0.50028 4.71897 0.5 4.981V10.9577C0.50028 11.2197 0.572289 11.4771 0.708803 11.7039C0.845318 11.9308 1.04154 12.1192 1.27778 12.2502L6.72222 15.2385C6.9587 15.3697 7.22694 15.4387 7.5 15.4387C7.77306 15.4387 8.0413 15.3697 8.27778 15.2385L13.7222 12.2502C13.9585 12.1192 14.1547 11.9308 14.2912 11.7039C14.4277 11.4771 14.4997 11.2197 14.5 10.9577Z" stroke="#20262F" stroke-linecap="round" stroke-linejoin="round"/>
</svg>
